<svg class="img-fluid" id="outputsvg" xmlns="http://www.w3.org/2000/svg" style="transform: matrix(1, 0, 0, 1, 0, 0); transform-origin: 50% 50%; cursor: move;" width="3000" height="3000" viewBox="0 0 30000 30000"><g id="l58sY8KoK6we0ezi8HJafOX" fill="rgb(237,27,36)" style="transform: none;"><g style="transform: none;"><path id="p7K73Vecq" d="M12203 26977 c4 -12 -56 -15 -416 -20 -232 -4 -435 -9 -452 -11 -16 -3 -84 -7 -150 -11 -121 -6 -410 -30 -498 -41 -42 -6 -47 -5 -41 11 5 13 2 16 -16 13 -19 -2 -56 -68 -221 -388 -150 -293 -198 -394 -198 -422 l-1 -38 44 0 c39 0 48 4 71 34 36 47 254 247 341 313 168 126 321 199 494 235 88 19 111 19 320 10 195 -9 237 -14 315 -37 213 -62 381 -174 631 -417 158 -155 174 -168 208 -168 34 0 36 2 36 33 0 24 -65 169 -213 473 -183 375 -217 439 -237 442 -16 3 -21 0 -17 -11z"></path><path id="pgzNASw2g" d="M17670 26808 c-48 -101 -144 -300 -214 -442 -85 -174 -126 -270 -126 -293 0 -31 2 -33 36 -33 34 0 50 13 208 168 250 243 418 354 631 417 79 23 119 28 315 37 208 9 232 8 320 -10 172 -36 326 -109 494 -235 88 -67 304 -264 340 -312 24 -31 32 -35 72 -35 l44 0 -1 38 c0 28 -48 129 -198 422 -165 320 -202 386 -221 388 -18 3 -21 0 -16 -13 6 -16 1 -17 -41 -11 -265 34 -870 66 -1253 66 -235 0 -269 2 -264 15 4 11 0 15 -16 15 -18 0 -35 -29 -110 -182z"></path><path id="pXiHCVuLu" d="M13780 26505 c0 -292 2 -345 14 -345 8 0 16 7 18 16 4 19 30 30 353 140 247 84 557 180 728 224 48 13 87 27 87 32 0 4 -1 8 -3 8 -1 0 -106 24 -232 54 -249 59 -566 123 -765 156 -168 28 -170 28 -170 45 0 8 -7 15 -15 15 -13 0 -15 -45 -15 -345z"></path><path id="paDZs1C3C" d="M16190 26835 c0 -17 12 -14 -230 -55 -307 -52 -940 -193 -940 -209 0 -5 39 -18 88 -31 170 -44 480 -140 727 -224 323 -110 349 -121 353 -140 2 -9 10 -16 18 -16 12 0 14 53 14 345 0 300 -2 345 -15 345 -8 0 -15 -7 -15 -15z"></path><path id="pN80vZ0z0" d="M9058 26623 c-4 -13 -31 -24 -99 -42 -1114 -280 -2291 -785 -3309 -1419 -1063 -662 -2021 -1491 -2835 -2454 -594 -703 -1120 -1496 -1530 -2309 -731 -1450 -1151 -2986 -1260 -4609 -21 -320 -25 -424 -25 -745 0 -321 10 -638 25 -840 48 -629 108 -1074 220 -1625 367 -1799 1163 -3511 2310 -4970 1345 -1709 3130 -3022 5155 -3793 384 -146 888 -307 1249 -398 68 -17 95 -29 99 -41 2 -10 11 -18 18 -18 12 0 14 287 14 1890 0 1630 -2 1890 -14 1890 -8 0 -16 -8 -18 -17 -5 -28 -329 360 -581 695 -1292 1718 -2096 3750 -2326 5882 -78 720 -91 1513 -36 2215 178 2270 973 4398 2323 6215 256 345 615 776 620 747 2 -9 10 -17 18 -17 12 0 14 260 14 1890 0 1603 -2 1890 -14 1890 -7 0 -16 -8 -18 -17z"></path><path id="pLDPK3wlK" d="M20910 24750 c0 -1630 2 -1890 14 -1890 8 0 16 8 18 17 5 27 322 -352 566 -674 1838 -2437 2671 -5460 2341 -8503 -230 -2127 -1013 -4116 -2303 -5850 -254 -342 -599 -756 -604 -727 -2 9 -10 17 -18 17 -12 0 -14 -260 -14 -1890 0 -1603 2 -1890 14 -1890 7 0 16 8 18 18 3 12 27 23 79 36 1280 325 2567 902 3676 1647 2741 1844 4596 4714 5138 7949 106 635 153 1174 162 1866 6 453 0 635 -33 1059 -193 2479 -1142 4810 -2740 6727 -324 389 -805 890 -1164 1212 -690 620 -1430 1149 -2230 1595 -209 117 -731 376 -960 477 -542 238 -1122 443 -1694 599 -173 47 -232 66 -234 79 -2 9 -10 16 -18 16 -12 0 -14 -260 -14 -1890z"></path><path id="p6gDHPhWc" d="M11299 26060 c-114 -9 -276 -44 -379 -83 -243 -91 -483 -273 -637 -483 -118 -160 -213 -384 -249 -584 -24 -135 -24 -413 0 -537 l18 -93 37 0 37 0 23 73 c130 404 483 748 901 877 247 76 498 80 747 10 103 -28 149 -26 106 5 -14 11 0 22 103 82 119 70 359 205 422 237 26 14 37 15 48 5 12 -9 14 -6 14 18 0 25 -15 44 -77 104 -283 270 -677 401 -1114 369z"></path><path id="pDJQYN2zM" d="M18430 26060 c-318 -25 -621 -157 -842 -369 -63 -60 -78 -79 -78 -104 0 -24 2 -27 14 -18 17 14 15 15 216 -97 289 -160 374 -214 356 -224 -9 -5 -16 -13 -16 -18 0 -16 44 -12 123 10 180 50 395 64 563 35 500 -86 924 -445 1084 -919 27 -79 28 -81 62 -84 l35 -3 18 103 c25 136 26 402 1 538 -114 638 -639 1106 -1290 1150 -78 5 -143 9 -146 8 -3 0 -48 -4 -100 -8z"></path><path id="pcNDfAzqJ" d="M10034 5488 c-27 -137 -24 -426 5 -564 118 -567 549 -997 1103 -1103 418 -79 836 10 1155 247 143 107 283 258 283 306 0 27 -15 36 -23 14 -5 -16 -77 18 -321 154 -177 98 -223 128 -198 128 7 0 12 5 12 11 0 18 -65 5 -177 -35 -184 -66 -362 -91 -538 -75 -327 30 -614 166 -851 403 -163 163 -271 336 -335 534 l-23 72 -37 0 -37 0 -18 -92z"></path><path id="puZTUKMgg" d="M19851 5503 c-58 -184 -175 -367 -336 -529 -261 -262 -594 -404 -950 -405 -152 -1 -278 21 -425 73 -125 43 -190 57 -190 39 0 -6 5 -11 12 -11 24 0 -17 -27 -162 -109 -222 -125 -352 -188 -357 -173 -8 22 -23 13 -23 -15 0 -44 136 -192 277 -301 129 -101 345 -201 518 -241 572 -131 1151 71 1490 521 238 315 333 736 259 1141 l-16 87 -37 0 -36 0 -24 -77z"></path><path id="pFhRnY6qe" d="M13780 3495 c0 -300 2 -345 15 -345 8 0 15 7 15 15 0 17 -1 17 198 50 187 31 485 92 710 144 237 56 262 62 262 71 0 4 -24 14 -52 20 -119 28 -499 145 -748 229 -338 115 -364 126 -368 145 -2 9 -10 16 -18 16 -12 0 -14 -53 -14 -345z"></path><path id="pCpWLjp7U" d="M16188 3824 c-5 -27 -525 -206 -945 -325 -120 -34 -220 -64 -222 -66 -10 -8 18 -16 215 -63 257 -60 552 -121 756 -155 199 -33 198 -33 198 -50 0 -8 7 -15 15 -15 13 0 15 45 15 345 0 292 -2 345 -14 345 -8 0 -16 -7 -18 -16z"></path><path id="pjOdLvTK6" d="M12431 3657 c-195 -190 -308 -279 -446 -347 -190 -94 -271 -109 -576 -113 -207 -2 -230 0 -309 21 -227 62 -425 192 -706 464 -100 97 -115 108 -148 108 -66 0 -55 -33 125 -385 131 -257 164 -315 181 -315 14 0 18 5 14 16 -5 13 1 14 37 10 167 -23 551 -53 772 -62 88 -3 176 -7 195 -9 19 -2 187 -4 372 -4 304 -1 337 -3 331 -17 -4 -12 0 -15 17 -12 19 2 51 62 201 372 124 254 179 379 179 402 0 32 -2 34 -36 34 -33 0 -50 -13 -203 -163z"></path><path id="p9WaWsQYm" d="M17330 3786 c0 -23 55 -148 179 -402 150 -310 182 -370 201 -372 17 -3 21 0 17 12 -6 14 27 16 331 17 185 0 353 2 372 4 19 2 107 6 195 9 221 9 605 39 772 62 36 4 42 3 37 -10 -4 -11 0 -16 14 -16 17 0 50 58 181 315 180 352 191 385 125 385 -33 0 -48 -11 -148 -108 -281 -272 -461 -391 -691 -457 -116 -33 -207 -39 -435 -27 -209 12 -295 30 -427 92 -163 76 -271 159 -494 377 -144 141 -159 153 -192 153 -35 0 -37 -2 -37 -34z"></path></g></g><g id="l4uMbUsUM7f8IkJNCEwPJcm" fill="rgb(35,31,32)" style="transform: none;"><g style="transform: none;"><path id="ptg87sIBX" d="M9062 15398 l3 -13853 2335 -391 c1284 -216 2352 -395 2373 -398 l37 -6 0 13855 c0 7620 -4 13855 -8 13855 -5 0 -1072 178 -2372 395 -1300 217 -2365 395 -2367 395 -2 0 -2 -6234 -1 -13852z m2698 12492 c106 -217 214 -440 240 -495 26 -55 181 -374 344 -709 163 -335 294 -611 291 -614 -2 -3 -83 71 -178 164 -251 246 -419 357 -632 419 -75 22 -124 28 -290 37 -235 12 -352 7 -457 -21 -228 -59 -429 -188 -692 -445 -114 -112 -146 -138 -146 -121 0 3 97 195 216 428 263 513 418 817 577 1127 66 129 155 303 197 385 43 83 112 220 155 304 l77 155 53 -110 c28 -60 139 -287 245 -504z m-95 -1876 c277 -44 532 -173 742 -377 199 -194 326 -417 390 -687 34 -147 42 -364 18 -515 -9 -60 -20 -116 -24 -123 -4 -7 -17 18 -30 60 -123 381 -421 698 -800 850 -174 71 -333 100 -532 100 -386 -1 -745 -158 -1012 -442 -131 -139 -242 -325 -298 -497 -12 -40 -26 -73 -30 -73 -18 0 -42 191 -42 330 0 171 19 290 68 438 72 215 186 396 350 558 316 312 750 448 1200 378z m100 -1794 c233 -46 498 -162 680 -297 120 -89 294 -266 378 -383 77 -108 193 -336 231 -455 94 -290 109 -596 45 -905 l-11 -55 -38 107 c-237 673 -828 1118 -1535 1154 -743 39 -1437 -431 -1684 -1140 -21 -60 -41 -105 -44 -100 -20 32 -40 199 -44 364 -4 159 -2 204 17 315 34 203 116 431 216 598 156 260 428 514 693 646 157 79 375 147 546 170 121 17 425 6 550 -19z m-51 -2155 c579 -86 1092 -471 1347 -1010 169 -359 210 -749 123 -1162 -3 -18 -9 -33 -13 -33 -3 0 -15 29 -25 65 -45 158 -156 374 -274 535 -78 105 -280 303 -392 383 -192 136 -458 250 -702 299 -99 20 -142 23 -348 23 -206 -1 -248 -4 -340 -23 -348 -76 -644 -232 -891 -469 -229 -221 -376 -457 -470 -751 -27 -83 -29 -81 -54 50 -55 292 -34 602 61 887 225 671 817 1145 1525 1220 113 12 323 5 453 -14z m11 -2281 c874 -118 1586 -767 1785 -1626 66 -286 67 -661 4 -939 l-17 -73 -47 138 c-266 768 -920 1307 -1727 1422 -145 20 -435 20 -578 -1 -533 -78 -999 -338 -1343 -750 -162 -194 -302 -443 -377 -673 -22 -67 -43 -121 -46 -122 -7 0 -34 124 -49 225 -15 100 -20 405 -9 505 49 436 212 824 483 1147 474 567 1191 846 1921 747z m-27 -2555 c773 -85 1470 -575 1812 -1274 159 -324 226 -593 237 -950 12 -398 -62 -751 -232 -1093 -361 -728 -1042 -1201 -1855 -1288 -114 -12 -401 -6 -526 11 -753 102 -1404 560 -1751 1230 -182 354 -267 718 -258 1115 6 245 39 439 115 671 278 847 1008 1453 1895 1573 123 17 432 20 563 5z m1838 -4696 c26 -139 27 -565 1 -703 -43 -231 -105 -418 -203 -610 -316 -622 -900 -1041 -1599 -1145 -135 -21 -423 -24 -555 -6 -381 50 -730 192 -1030 419 -97 73 -285 256 -362 351 -348 432 -518 985 -469 1526 11 116 46 323 57 334 6 6 5 7 48 -122 96 -291 264 -564 490 -796 130 -133 222 -209 366 -303 822 -538 1910 -436 2629 247 235 223 451 565 548 867 l38 117 12 -39 c6 -21 19 -83 29 -137z m-3719 -2824 c236 -502 722 -883 1263 -987 158 -31 189 -34 364 -34 223 1 395 30 603 103 503 177 925 607 1085 1106 18 56 36 103 39 103 17 0 50 -216 56 -365 20 -500 -158 -964 -511 -1323 -311 -318 -697 -498 -1148 -534 -224 -18 -469 11 -690 82 -118 39 -328 142 -438 215 -612 411 -913 1158 -753 1870 l16 70 37 -111 c21 -61 55 -148 77 -195z m3298 -2119 c94 -532 -85 -1092 -474 -1480 -70 -69 -169 -155 -221 -192 -180 -127 -415 -229 -650 -280 -92 -20 -133 -22 -335 -22 -200 0 -243 3 -332 22 -685 149 -1189 655 -1334 1337 -20 95 -23 138 -24 325 0 168 4 236 18 312 11 54 22 100 26 102 4 3 20 -34 35 -82 37 -119 142 -327 223 -442 145 -204 391 -417 618 -534 611 -315 1349 -226 1884 228 220 185 418 482 507 759 32 100 32 101 59 -53z m-294 -2206 c32 -260 -16 -545 -133 -778 -134 -268 -330 -474 -582 -611 -698 -378 -1564 -103 -1919 610 -97 196 -139 376 -140 605 -1 149 23 340 42 340 4 0 18 -33 30 -72 108 -336 386 -650 711 -805 652 -311 1427 -82 1800 533 58 95 99 184 131 284 l24 73 12 -41 c6 -23 17 -84 24 -138z m-367 -1985 c-102 -211 -256 -528 -342 -704 -220 -455 -308 -636 -487 -1005 -86 -179 -158 -326 -160 -328 -2 -2 -74 135 -160 305 -87 169 -199 389 -250 488 -115 223 -283 552 -450 880 -70 138 -181 355 -247 483 -66 128 -117 236 -114 239 3 3 56 -43 118 -103 283 -274 481 -404 708 -466 78 -21 104 -23 330 -22 331 1 416 16 615 114 138 68 251 156 448 349 92 90 170 162 172 159 3 -3 -79 -178 -181 -389z"></path><path id="pWSVQtJVu" d="M11225 17129 c-481 -52 -923 -258 -1268 -589 -526 -504 -755 -1234 -616 -1958 153 -795 776 -1453 1566 -1653 189 -48 318 -63 528 -63 270 0 466 32 715 119 616 215 1112 721 1315 1340 289 881 -9 1833 -748 2386 -283 212 -586 340 -942 399 -142 24 -419 33 -550 19z m265 -39 c27 -27 25 -66 -5 -95 -29 -30 -68 -32 -95 -5 -24 24 -26 77 -3 102 22 24 77 24 103 -2z m-195 -106 c55 -14 102 -27 104 -29 2 -2 -10 -7 -25 -10 -220 -46 -359 -167 -418 -364 -18 -61 -21 -184 -5 -250 45 -195 225 -357 420 -378 l58 -6 -21 -30 c-11 -16 -38 -47 -59 -69 -36 -39 -41 -40 -81 -34 -70 11 -200 82 -273 148 -109 100 -178 219 -206 356 -13 60 -14 63 -39 57 -28 -7 -294 -132 -380 -178 -119 -65 -199 -123 -286 -211 -178 -179 -303 -414 -360 -681 -22 -103 -21 -382 1 -502 41 -222 127 -400 285 -597 111 -137 265 -241 445 -300 94 -30 213 -56 259 -56 35 0 595 156 609 169 4 4 -9 171 -29 372 -36 370 -39 474 -14 586 15 66 16 171 1 214 -18 54 -66 93 -181 147 -171 80 -206 137 -183 301 24 161 94 172 251 37 30 -25 62 -46 71 -46 10 0 41 27 70 60 90 103 162 103 252 0 29 -33 60 -60 70 -60 10 0 39 19 66 42 109 94 180 120 218 78 21 -23 45 -118 45 -180 0 -112 -40 -161 -190 -232 -126 -59 -165 -94 -186 -164 -15 -54 -15 -72 12 -239 19 -124 19 -143 -21 -549 -20 -198 -32 -363 -28 -367 14 -14 573 -169 608 -169 87 0 302 63 423 124 181 91 352 282 467 521 86 179 114 317 116 560 2 182 -13 280 -65 432 -86 251 -279 512 -472 636 -109 70 -489 257 -523 257 -5 0 -11 -19 -15 -41 -36 -227 -222 -442 -444 -514 -29 -9 -64 -14 -77 -11 -13 3 -47 34 -75 69 l-50 62 52 6 c190 21 356 153 417 332 98 285 -76 592 -371 653 -40 8 -74 16 -75 18 -6 5 259 66 289 66 45 0 73 -21 161 -118 85 -95 131 -178 162 -295 l22 -82 49 -13 c123 -32 255 -77 331 -113 459 -212 795 -636 903 -1139 30 -140 37 -357 16 -492 -34 -214 -89 -406 -154 -540 -142 -291 -313 -508 -581 -740 -365 -316 -670 -478 -896 -478 -158 1 -197 69 -199 350 -1 150 -2 157 -30 210 -34 66 -87 139 -101 140 -14 0 -83 -96 -108 -150 -18 -39 -21 -67 -23 -200 -2 -225 -23 -297 -97 -331 -80 -36 -243 -15 -398 51 -281 119 -746 498 -955 776 -166 221 -270 430 -325 652 -59 239 -73 343 -66 512 4 86 14 184 27 242 127 599 587 1083 1176 1235 l108 28 18 74 c28 116 77 206 163 301 104 115 117 123 185 116 30 -3 100 -17 155 -32z m250 -313 c90 -40 154 -158 140 -256 -17 -111 -113 -204 -221 -213 -84 -7 -141 14 -200 72 -116 117 -95 299 45 383 29 18 65 34 80 36 41 7 112 -3 156 -22z m-1212 -1141 c201 -102 364 -186 363 -188 -2 -1 -39 3 -84 9 -91 12 -190 1 -246 -28 -49 -25 -142 -99 -176 -141 -33 -40 -73 -154 -85 -240 -4 -29 -8 -52 -10 -50 -5 4 -145 790 -145 812 0 10 4 16 9 14 6 -1 174 -86 374 -188z m2536 -127 c-31 -175 -65 -363 -75 -418 l-18 -100 -18 95 c-20 97 -53 177 -91 219 -44 48 -150 120 -200 137 -56 19 -148 23 -242 12 -60 -7 -60 -7 135 91 107 54 274 140 370 190 96 50 180 91 186 91 6 0 -11 -121 -47 -317z m-2234 -154 c124 -23 223 -100 278 -217 28 -60 32 -77 32 -157 0 -80 -4 -97 -32 -157 -140 -296 -553 -295 -691 0 -24 50 -27 70 -27 157 0 93 2 105 33 167 51 105 155 186 266 208 59 11 75 11 141 -1z m1733 1 c119 -22 221 -99 274 -208 31 -62 33 -74 33 -167 0 -87 -3 -107 -27 -157 -137 -293 -553 -295 -689 -3 -105 222 21 478 261 531 70 16 86 16 148 4z m-1259 -813 c40 -225 71 -410 69 -410 -2 -1 -174 85 -383 190 -341 173 -374 192 -325 185 86 -11 191 -8 244 7 68 20 194 116 234 178 34 52 72 181 72 242 0 83 21 -8 89 -392z m745 353 c9 -78 37 -159 75 -214 36 -52 150 -139 212 -162 48 -18 171 -23 259 -12 49 7 16 -12 -325 -185 -209 -105 -382 -191 -383 -190 -6 3 143 823 149 823 4 0 9 -27 13 -60z"></path><path id="p1DCyDPQWS" d="M18770 28890 c-1174 -197 -2235 -375 -2357 -395 l-223 -38 0 -13854 0 -13855 28 6 c15 3 554 94 1197 202 644 108 1699 284 2345 393 l1175 197 3 13852 c2 13188 1 13852 -15 13851 -10 -1 -979 -162 -2153 -359z m-67 -712 c90 -178 365 -716 611 -1196 245 -480 446 -875 446 -877 0 -18 -33 2 -63 38 -53 65 -273 261 -373 332 -115 82 -218 137 -329 174 -145 48 -226 55 -495 43 -206 -9 -246 -13 -325 -37 -214 -63 -381 -174 -632 -419 -95 -93 -176 -167 -178 -164 -3 3 51 119 119 259 68 140 226 466 351 724 125 259 322 664 437 900 115 237 221 456 235 488 15 31 27 57 29 57 1 0 76 -145 167 -322z m184 -2183 c256 -64 469 -182 648 -359 164 -162 278 -343 350 -558 48 -146 68 -268 68 -433 1 -138 -27 -356 -43 -338 -4 4 -17 40 -30 78 -151 465 -586 835 -1082 919 -114 20 -330 22 -438 6 -309 -48 -579 -185 -795 -405 -144 -147 -247 -313 -319 -515 l-33 -93 -11 44 c-56 230 -35 553 52 782 151 394 470 704 863 838 240 81 530 94 770 34z m8 -1775 c355 -75 639 -233 891 -492 229 -236 380 -525 446 -850 31 -153 33 -478 4 -635 -10 -57 -22 -103 -25 -103 -4 0 -19 39 -35 87 -73 226 -207 449 -381 631 -569 601 -1493 704 -2176 243 -319 -215 -548 -514 -670 -875 l-34 -99 -17 74 c-31 130 -44 340 -30 491 22 237 71 411 177 623 165 330 423 589 755 755 176 88 331 138 520 165 140 21 444 13 575 -15z m-54 -2156 c501 -81 929 -354 1211 -773 259 -386 358 -867 273 -1319 -25 -131 -27 -133 -54 -50 -93 293 -241 530 -468 749 -249 240 -546 396 -893 470 -145 31 -511 34 -665 5 -651 -121 -1186 -585 -1382 -1196 -15 -49 -31 -90 -34 -90 -17 0 -49 216 -56 370 -13 310 48 586 193 875 79 158 169 286 293 417 319 336 717 524 1186 562 86 7 298 -4 396 -20z m-156 -2264 c313 -21 558 -87 830 -222 504 -251 896 -707 1072 -1248 38 -119 77 -301 92 -435 11 -106 7 -411 -8 -510 -16 -102 -43 -225 -50 -225 -3 0 -23 53 -44 118 -73 226 -217 484 -379 677 -354 424 -839 688 -1382 755 -132 16 -412 14 -546 -5 -797 -112 -1455 -656 -1720 -1421 l-47 -138 -17 74 c-66 288 -61 688 13 976 228 894 1002 1541 1916 1604 61 4 115 8 120 8 6 1 73 -3 150 -8z m171 -2575 c837 -110 1525 -641 1853 -1430 110 -263 165 -551 165 -865 1 -368 -71 -683 -228 -1005 -234 -478 -601 -847 -1071 -1075 -328 -159 -637 -230 -1005 -232 -270 -1 -491 33 -729 112 -598 198 -1079 618 -1357 1185 -171 351 -243 690 -231 1095 10 348 79 622 237 945 313 640 914 1102 1620 1244 58 12 139 25 180 30 129 15 439 12 566 -4z m-2202 -4899 c430 -871 1378 -1340 2326 -1150 311 62 609 197 870 392 95 71 284 254 363 352 154 191 294 445 363 659 21 66 42 121 45 121 18 1 58 -269 65 -445 20 -483 -128 -952 -428 -1357 -74 -100 -255 -288 -358 -371 -302 -245 -682 -406 -1080 -458 -133 -17 -420 -15 -555 6 -925 138 -1632 825 -1800 1750 -10 55 -19 171 -22 300 -5 220 6 354 43 515 l17 75 43 -129 c24 -72 72 -189 108 -260z m3676 -2471 c89 -528 -68 -1074 -427 -1481 -351 -397 -890 -626 -1414 -600 -474 23 -889 210 -1214 548 -141 146 -228 269 -314 443 -142 287 -201 558 -188 870 6 149 39 365 56 365 3 0 16 -35 29 -77 113 -372 383 -725 725 -948 295 -192 617 -286 978 -286 644 -1 1211 322 1545 878 66 110 141 279 170 382 15 57 18 61 26 40 5 -13 18 -73 28 -134z m-3308 -2407 c169 -355 443 -632 793 -804 259 -127 524 -183 810 -171 182 7 299 28 465 83 442 146 788 445 995 859 35 72 77 170 93 219 16 49 32 84 36 78 3 -6 16 -66 27 -134 28 -163 23 -457 -11 -612 -111 -517 -444 -949 -905 -1176 -254 -125 -426 -168 -697 -177 -202 -6 -316 5 -483 47 -308 77 -551 217 -786 450 -419 418 -580 982 -453 1590 7 33 9 31 40 -62 18 -53 52 -139 76 -190z m294 -2146 c192 -386 574 -671 1004 -748 124 -22 353 -22 477 0 291 51 539 180 748 390 161 162 278 345 336 529 13 42 27 77 30 77 4 0 14 -39 22 -87 53 -298 14 -581 -118 -850 -416 -849 -1506 -1052 -2207 -411 -199 182 -354 461 -413 743 -34 161 -31 421 7 575 l11 44 29 -84 c15 -47 49 -127 74 -178z m213 -1665 c174 -171 221 -211 334 -287 150 -100 314 -161 478 -179 40 -4 172 -7 293 -6 211 1 225 2 311 28 237 73 412 189 693 461 62 60 115 106 118 103 5 -5 -59 -134 -346 -692 -48 -93 -262 -512 -475 -930 -213 -418 -391 -763 -395 -768 -3 -4 -25 32 -48 80 -22 49 -100 210 -173 358 -72 149 -153 315 -179 370 -26 55 -103 213 -170 350 -67 138 -144 295 -170 350 -26 55 -136 282 -244 504 -108 222 -196 405 -196 407 0 14 30 -13 169 -149z"></path><path id="pJ84lTUxb" d="M18410 17134 c-290 -33 -429 -65 -633 -146 -1005 -397 -1561 -1497 -1281 -2537 211 -783 832 -1372 1629 -1544 211 -46 534 -56 744 -23 615 95 1140 429 1478 941 503 762 465 1762 -96 2485 -335 433 -828 722 -1372 805 -101 15 -398 27 -469 19z m202 -41 c42 -37 9 -123 -47 -123 -33 0 -75 42 -75 75 0 55 79 87 122 48z m-185 -109 c62 -16 111 -29 110 -30 -1 -2 -35 -10 -75 -18 -341 -71 -508 -466 -321 -758 81 -125 252 -228 381 -228 l39 0 -22 -31 c-12 -17 -39 -49 -60 -71 -36 -39 -41 -40 -81 -34 -24 4 -80 25 -125 47 -183 91 -328 283 -359 478 -4 22 -10 41 -15 41 -34 0 -414 -187 -523 -257 -39 -25 -112 -87 -162 -137 -174 -174 -290 -388 -350 -644 -23 -95 -26 -127 -25 -286 1 -138 6 -201 22 -280 69 -340 304 -673 568 -805 121 -61 332 -122 419 -121 20 1 165 38 322 83 l285 82 -2 55 c-1 30 -11 150 -23 265 -47 474 -46 458 -21 629 22 144 22 157 7 208 -20 71 -60 107 -178 162 -155 72 -198 123 -198 236 0 62 24 157 45 180 38 42 109 16 218 -78 27 -23 55 -42 64 -42 9 0 44 29 77 63 96 100 158 99 247 -3 29 -33 60 -60 70 -60 9 0 41 21 71 46 157 135 227 124 251 -37 23 -164 -12 -221 -183 -301 -193 -90 -214 -135 -180 -368 11 -73 20 -154 20 -181 0 -27 -16 -210 -35 -406 -20 -196 -32 -360 -28 -364 14 -14 573 -169 608 -169 91 0 302 63 425 126 154 79 286 211 402 402 118 195 165 355 178 602 14 266 -21 440 -131 663 -122 244 -276 412 -494 535 -87 49 -381 188 -416 197 -24 6 -27 4 -33 -36 -28 -176 -162 -369 -319 -459 -70 -40 -172 -73 -202 -66 -13 3 -47 34 -75 69 l-50 62 57 7 c181 23 333 143 404 320 30 75 37 224 14 304 -51 177 -191 316 -360 355 -93 21 -93 24 -4 47 46 13 115 28 152 35 63 10 72 10 102 -8 52 -31 179 -179 215 -251 19 -36 43 -102 55 -147 l22 -82 69 -18 c486 -124 857 -417 1072 -847 112 -223 159 -402 169 -640 7 -170 -7 -273 -66 -514 -90 -363 -320 -707 -680 -1018 -365 -316 -670 -478 -896 -478 -158 1 -197 68 -199 350 -1 149 -2 157 -29 210 -34 65 -88 139 -102 139 -16 0 -71 -79 -102 -145 -27 -56 -28 -67 -29 -209 -1 -275 -41 -344 -199 -345 -180 0 -407 101 -676 301 -406 303 -660 599 -820 957 -52 118 -102 305 -135 501 -21 132 -15 350 16 493 113 532 488 976 996 1177 44 18 127 44 184 59 l103 27 22 81 c11 45 35 110 52 145 32 63 160 217 212 252 33 23 87 19 238 -19z m257 -322 c104 -57 150 -175 114 -296 -18 -59 -99 -138 -160 -155 -114 -32 -226 10 -284 107 -41 68 -50 127 -29 198 45 155 214 224 359 146z m-1226 -1129 c202 -102 369 -188 372 -191 3 -2 -17 0 -45 4 -93 15 -205 9 -265 -15 -65 -25 -173 -110 -211 -166 -29 -42 -64 -148 -75 -228 -3 -26 -8 -47 -9 -45 -5 4 -145 792 -145 812 0 9 2 16 5 16 3 0 171 -84 373 -187z m2541 -135 c-32 -178 -66 -366 -75 -418 l-18 -95 -18 95 c-20 97 -53 177 -91 219 -44 48 -150 120 -200 137 -56 19 -148 23 -242 12 -59 -7 -58 -6 155 101 118 60 285 145 370 190 85 44 160 81 166 81 6 0 -12 -125 -47 -322z m-2234 -149 c248 -46 383 -306 277 -533 -137 -293 -552 -292 -690 2 -24 50 -27 70 -27 157 0 87 3 107 27 157 59 127 195 220 334 227 11 1 47 -4 79 -10z m1733 1 c119 -22 221 -99 274 -208 31 -62 33 -74 33 -167 0 -93 -2 -105 -32 -166 -142 -287 -549 -282 -686 9 -28 60 -32 77 -32 157 0 80 4 97 32 157 53 113 145 188 263 214 70 16 86 16 148 4z m-492 -560 c8 -30 30 -77 47 -104 39 -61 165 -157 233 -177 53 -15 158 -18 244 -7 49 7 16 -12 -325 -185 -209 -105 -381 -191 -383 -190 -4 1 136 789 145 818 5 14 10 1 15 -40 4 -32 15 -84 24 -115z m-772 -228 c37 -213 70 -399 73 -413 5 -24 -21 -13 -374 164 -208 104 -380 191 -383 194 -2 2 20 1 50 -4 84 -12 189 -10 244 6 68 20 194 116 234 178 32 49 72 180 72 235 0 83 22 -10 84 -360z"></path></g></g></svg>